<svg width="94" height="40" viewBox="0 0 94 40" fill="none" xmlns="http://www.w3.org/2000/svg">
<g clip-path="url(#clip0_1_2)">
<g filter="url(#filter0_d_1_2)">
<path d="M6.121 14.751L8.812 7.887H9.189L11.542 14.803C11.724 15.349 11.8453 15.7433 11.906 15.986C11.9753 15.7 12.0967 15.31 12.27 14.816L14.662 7.705H15.312L12.075 17.078H11.711L9.306 10.188C9.27133 10.0753 9.23233 9.96267 9.189 9.85C9.15433 9.73733 9.124 9.63767 9.098 9.551C9.072 9.46433 9.046 9.39067 9.02 9.33L8.968 9.174C8.95933 9.13067 8.955 9.10467 8.955 9.096C8.851 9.408 8.71667 9.76767 8.552 10.175L5.835 17.078H5.471L2.208 7.705H2.897L5.276 14.699C5.38867 15.011 5.47967 15.2927 5.549 15.544C5.627 15.7953 5.67033 15.934 5.679 15.96C5.72233 15.7607 5.86967 15.3577 6.121 14.751ZM20.6338 17.13C19.4291 17.13 18.4194 16.7097 17.6048 15.869C16.7901 15.0283 16.3828 14.0013 16.3828 12.788C16.3828 11.566 16.7901 10.5347 17.6048 9.694C18.4194 8.85333 19.4291 8.433 20.6338 8.433C21.8384 8.433 22.8481 8.85333 23.6628 9.694C24.4774 10.5347 24.8848 11.566 24.8848 12.788C24.8848 14.0013 24.4774 15.0283 23.6628 15.869C22.8481 16.7097 21.8384 17.13 20.6338 17.13ZM20.6338 8.966C19.5938 8.966 18.7271 9.33433 18.0338 10.071C17.3491 10.8077 17.0068 11.7133 17.0068 12.788C17.0068 13.854 17.3491 14.7553 18.0338 15.492C18.7271 16.22 19.5938 16.584 20.6338 16.584C21.6824 16.584 22.5491 16.22 23.2338 15.492C23.9184 14.7553 24.2608 13.854 24.2608 12.788C24.2608 11.7133 23.9184 10.8077 23.2338 10.071C22.5491 9.33433 21.6824 8.966 20.6338 8.966ZM27.4907 17V8.511H27.7767L33.3147 14.881C33.514 15.1063 33.696 15.3317 33.8607 15.557C34.034 15.7737 34.125 15.8863 34.1337 15.895C34.1163 15.687 34.1077 15.2797 34.1077 14.673V8.563H34.7057V17.052H34.4197L28.7777 10.578L28.0627 9.707C28.08 9.88033 28.0887 10.2877 28.0887 10.929V17H27.4907ZM40.5286 16.558C41.638 16.558 42.5263 16.259 43.1936 15.661C43.8696 15.063 44.2076 14.1617 44.2076 12.957C44.2076 11.7523 43.8263 10.7947 43.0636 10.084C42.3096 9.37333 41.378 9.018 40.2686 9.018C39.48 9.018 38.8733 9.03533 38.4486 9.07V16.467C38.9686 16.5277 39.662 16.558 40.5286 16.558ZM40.2686 8.485C41.5686 8.485 42.652 8.888 43.5186 9.694C44.394 10.4913 44.8316 11.579 44.8316 12.957C44.8316 14.335 44.4286 15.3707 43.6226 16.064C42.8253 16.7573 41.794 17.104 40.5286 17.104C39.6533 17.104 38.752 17.0607 37.8246 16.974V8.563C38.518 8.511 39.3326 8.485 40.2686 8.485ZM47.435 17V8.563H51.374V9.083H48.033V12.151H51.049V12.658H48.033V16.454H51.504V17H47.435ZM53.8969 17V8.602C54.6422 8.54133 55.2749 8.511 55.7949 8.511C56.5922 8.511 57.2509 8.719 57.7709 9.135C58.2909 9.54233 58.5509 10.1273 58.5509 10.89C58.5509 11.4013 58.4036 11.8737 58.1089 12.307C57.8142 12.7403 57.4806 13.0913 57.1079 13.36C58.1392 14.7293 58.7762 15.5483 59.0189 15.817C59.5129 16.3283 60.0502 16.6187 60.6309 16.688L60.6179 17.091C60.1326 17.0823 59.7382 17.013 59.4349 16.883C59.1316 16.7443 58.8282 16.5147 58.5249 16.194C58.2302 15.8733 57.5759 15.011 56.5619 13.607C55.8599 13.607 55.1709 13.5853 54.4949 13.542V17H53.8969ZM56.2369 13.113C56.5749 13.113 56.9389 12.8877 57.3289 12.437C57.7189 11.9863 57.9139 11.462 57.9139 10.864C57.9139 10.266 57.7102 9.811 57.3029 9.499C56.8956 9.187 56.3669 9.031 55.7169 9.031C55.3702 9.031 54.9629 9.04833 54.4949 9.083V13.048C55.1189 13.0913 55.6996 13.113 56.2369 13.113ZM63.5091 8.927C63.0411 8.927 62.6598 9.03967 62.3651 9.265C62.0704 9.49033 61.9231 9.80667 61.9231 10.214C61.9231 10.682 62.1181 11.1023 62.5081 11.475C62.7854 11.7437 63.1408 12.0297 63.5741 12.333C64.0161 12.6277 64.3194 12.84 64.4841 12.97C64.6488 13.1 64.8481 13.2777 65.0821 13.503C65.5068 13.9277 65.7191 14.4173 65.7191 14.972C65.7191 15.6913 65.4764 16.2373 64.9911 16.61C64.5144 16.974 63.8428 17.156 62.9761 17.156C62.1181 17.156 61.3988 16.9307 60.8181 16.48L61.1301 16.025C61.7194 16.4237 62.3434 16.623 63.0021 16.623C63.6608 16.623 64.1721 16.4843 64.5361 16.207C64.9088 15.9297 65.0951 15.5397 65.0951 15.037C65.0951 14.6037 64.9088 14.205 64.5361 13.841C64.2761 13.581 63.9251 13.2993 63.4831 12.996C63.0498 12.6927 62.7464 12.476 62.5731 12.346C62.3998 12.2073 62.1961 12.0253 61.9621 11.8C61.5201 11.358 61.2991 10.8467 61.2991 10.266C61.2991 9.68533 61.5028 9.23033 61.9101 8.901C62.3261 8.57167 62.8981 8.407 63.6261 8.407C64.3541 8.407 65.0084 8.55 65.5891 8.836L65.3681 9.317C64.8308 9.057 64.2111 8.927 63.5091 8.927ZM76.5312 17.13C75.3266 17.13 74.3169 16.7097 73.5022 15.869C72.6876 15.0283 72.2802 14.0013 72.2802 12.788C72.2802 11.566 72.6876 10.5347 73.5022 9.694C74.3169 8.85333 75.3266 8.433 76.5312 8.433C77.7359 8.433 78.7456 8.85333 79.5602 9.694C80.3749 10.5347 80.7822 11.566 80.7822 12.788C80.7822 14.0013 80.3749 15.0283 79.5602 15.869C78.7456 16.7097 77.7359 17.13 76.5312 17.13ZM76.5312 8.966C75.4912 8.966 74.6246 9.33433 73.9312 10.071C73.2466 10.8077 72.9042 11.7133 72.9042 12.788C72.9042 13.854 73.2466 14.7553 73.9312 15.492C74.6246 16.22 75.4912 16.584 76.5312 16.584C77.5799 16.584 78.4466 16.22 79.1312 15.492C79.8159 14.7553 80.1582 13.854 80.1582 12.788C80.1582 11.7133 79.8159 10.8077 79.1312 10.071C78.4466 9.33433 77.5799 8.966 76.5312 8.966ZM83.3881 17V8.563H87.7171V9.083H83.9861V12.151H87.3921V12.658H83.9861V17H83.3881ZM5.068 23.096H2.208V22.563H8.513V23.096H5.653V31H5.068V23.096ZM16.7368 31V26.736H10.8738V31H10.2758V22.563H10.8738V26.203H16.7368V22.563H17.3348V31H16.7368ZM20.4575 31V22.563H24.3965V23.083H21.0555V26.151H24.0715V26.658H21.0555V30.454H24.5265V31H20.4575ZM34.1649 28.751L36.8559 21.887H37.2329L39.5859 28.803C39.7679 29.349 39.8893 29.7433 39.9499 29.986C40.0193 29.7 40.1406 29.31 40.3139 28.816L42.7059 21.705H43.3559L40.1189 31.078H39.7549L37.3499 24.188C37.3153 24.0753 37.2763 23.9627 37.2329 23.85C37.1983 23.7373 37.1679 23.6377 37.1419 23.551C37.1159 23.4643 37.0899 23.3907 37.0639 23.33L37.0119 23.174C37.0033 23.1307 36.9989 23.1047 36.9989 23.096C36.8949 23.408 36.7606 23.7677 36.5959 24.175L33.8789 31.078H33.5149L30.2519 21.705H30.9409L33.3199 28.699C33.4326 29.011 33.5236 29.2927 33.5929 29.544C33.6709 29.7953 33.7143 29.934 33.7229 29.96C33.7663 29.7607 33.9136 29.3577 34.1649 28.751ZM48.6777 31.13C47.4731 31.13 46.4634 30.7097 45.6487 29.869C44.8341 29.0283 44.4267 28.0013 44.4267 26.788C44.4267 25.566 44.8341 24.5347 45.6487 23.694C46.4634 22.8533 47.4731 22.433 48.6777 22.433C49.8824 22.433 50.8921 22.8533 51.7067 23.694C52.5214 24.5347 52.9287 25.566 52.9287 26.788C52.9287 28.0013 52.5214 29.0283 51.7067 29.869C50.8921 30.7097 49.8824 31.13 48.6777 31.13ZM48.6777 22.966C47.6377 22.966 46.7711 23.3343 46.0777 24.071C45.3931 24.8077 45.0507 25.7133 45.0507 26.788C45.0507 27.854 45.3931 28.7553 46.0777 29.492C46.7711 30.22 47.6377 30.584 48.6777 30.584C49.7264 30.584 50.5931 30.22 51.2777 29.492C51.9624 28.7553 52.3047 27.854 52.3047 26.788C52.3047 25.7133 51.9624 24.8077 51.2777 24.071C50.5931 23.3343 49.7264 22.966 48.6777 22.966ZM61.5406 30.129C60.9686 30.7963 60.0976 31.13 58.9276 31.13C57.7576 31.13 56.8866 30.7963 56.3146 30.129C55.7426 29.4617 55.4566 28.5387 55.4566 27.36V22.563H56.0546V27.36C56.0546 29.518 57.0123 30.597 58.9276 30.597C60.8429 30.597 61.8006 29.518 61.8006 27.36V22.563H62.3986V27.36C62.3986 28.5387 62.1126 29.4617 61.5406 30.129ZM65.437 31V22.602C66.1823 22.5413 66.815 22.511 67.335 22.511C68.1323 22.511 68.791 22.719 69.311 23.135C69.831 23.5423 70.091 24.1273 70.091 24.89C70.091 25.4013 69.9436 25.8737 69.649 26.307C69.3543 26.7403 69.0206 27.0913 68.648 27.36C69.6793 28.7293 70.3163 29.5483 70.559 29.817C71.053 30.3283 71.5903 30.6187 72.171 30.688L72.158 31.091C71.6726 31.0823 71.2783 31.013 70.975 30.883C70.6716 30.7443 70.3683 30.5147 70.065 30.194C69.7703 29.8733 69.116 29.011 68.102 27.607C67.4 27.607 66.711 27.5853 66.035 27.542V31H65.437ZM67.777 27.113C68.115 27.113 68.479 26.8877 68.869 26.437C69.259 25.9863 69.454 25.462 69.454 24.864C69.454 24.266 69.2503 23.811 68.843 23.499C68.4356 23.187 67.907 23.031 67.257 23.031C66.9103 23.031 66.503 23.0483 66.035 23.083V27.048C66.659 27.0913 67.2396 27.113 67.777 27.113ZM73.3461 31V22.563H73.9441V30.454H77.8181V31H73.3461ZM82.2962 30.558C83.4056 30.558 84.2939 30.259 84.9612 29.661C85.6372 29.063 85.9752 28.1617 85.9752 26.957C85.9752 25.7523 85.5939 24.7947 84.8312 24.084C84.0772 23.3733 83.1456 23.018 82.0362 23.018C81.2476 23.018 80.6409 23.0353 80.2162 23.07V30.467C80.7362 30.5277 81.4296 30.558 82.2962 30.558ZM82.0362 22.485C83.3362 22.485 84.4196 22.888 85.2862 23.694C86.1616 24.4913 86.5992 25.579 86.5992 26.957C86.5992 28.335 86.1962 29.3707 85.3902 30.064C84.5929 30.7573 83.5616 31.104 82.2962 31.104C81.4209 31.104 80.5196 31.0607 79.5922 30.974V22.563C80.2856 22.511 81.1002 22.485 82.0362 22.485Z" fill="white"/>
</g>
</g>
<defs>
<filter id="filter0_d_1_2" x="-1.792" y="7.705" width="93.5091" height="31.425" filterUnits="userSpaceOnUse" color-interpolation-filters="sRGB">
<feFlood flood-opacity="0" result="BackgroundImageFix"/>
<feColorMatrix in="SourceAlpha" type="matrix" values="0 0 0 0 0 0 0 0 0 0 0 0 0 0 0 0 0 0 127 0" result="hardAlpha"/>
<feOffset dy="4"/>
<feGaussianBlur stdDeviation="2"/>
<feComposite in2="hardAlpha" operator="out"/>
<feColorMatrix type="matrix" values="0 0 0 0 0 0 0 0 0 0 0 0 0 0 0 0 0 0 0.25 0"/>
<feBlend mode="normal" in2="BackgroundImageFix" result="effect1_dropShadow_1_2"/>
<feBlend mode="normal" in="SourceGraphic" in2="effect1_dropShadow_1_2" result="shape"/>
</filter>
<clipPath id="clip0_1_2">
<rect width="94" height="40" fill="white"/>
</clipPath>
</defs>
</svg>
